PathFileType	4	(X/Y/Z)	/Users/itak/Documents/Research/Walk-IL/dataset/trc/00448_00167.trc
DataRate	CameraRate	NumFrames	NumMarkers	Units	OrigDataRate	OrigDataStartFrame	OrigNumFrames
100.000000	100.000000	4	53	mm	100.000000	258	517
Frame#	Time	RPSI			LPSI			L3			STRN			T10			C7			CLAV			RBAK			LBAK			LSHO			LUPA			LAEL			LAOL			LWTS			LWPS			LFRA			LIFD			LHPS			LHTS			RSHO			RUPA			RAEL			RAOL			RWTS			RWPS			RFRA			RIFD			RHTS			RHPS			RBHD			LFHD			RFHD			LBHD			LHIP			RHIP			RASI			LASI			LKNE			LTHI			LANK			LTIP			LTOE			LMT1			LMT5			LHEE			RKNE			RTHI			RANK			RTIP			RTOE			RMT1			RMT5			RHEE			
		X1	Y1	Z1	X2	Y2	Z2	X3	Y3	Z3	X4	Y4	Z4	X5	Y5	Z5	X6	Y6	Z6	X7	Y7	Z7	X8	Y8	Z8	X9	Y9	Z9	X10	Y10	Z10	X11	Y11	Z11	X12	Y12	Z12	X13	Y13	Z13	X14	Y14	Z14	X15	Y15	Z15	X16	Y16	Z16	X17	Y17	Z17	X18	Y18	Z18	X19	Y19	Z19	X20	Y20	Z20	X21	Y21	Z21	X22	Y22	Z22	X23	Y23	Z23	X24	Y24	Z24	X25	Y25	Z25	X26	Y26	Z26	X27	Y27	Z27	X28	Y28	Z28	X29	Y29	Z29	X30	Y30	Z30	X31	Y31	Z31	X32	Y32	Z32	X33	Y33	Z33	X34	Y34	Z34	X35	Y35	Z35	X36	Y36	Z36	X37	Y37	Z37	X38	Y38	Z38	X39	Y39	Z39	X40	Y40	Z40	X41	Y41	Z41	X42	Y42	Z42	X43	Y43	Z43	X44	Y44	Z44	X45	Y45	Z45	X46	Y46	Z46	X47	Y47	Z47	X48	Y48	Z48	X49	Y49	Z49	X50	Y50	Z50	X51	Y51	Z51	X52	Y52	Z52	X53	Y53	Z53	

259	2.58	-1.602163314819336	982.62890625	297.4551696777344	66.73583221435547	1000.92333984375	177.1725006103516	48.98330688476562	1088.701904296875	246.0989990234375	287.2522583007812	1266.944091796875	411.8265686035156	51.31401062011719	1211.12841796875	239.4755706787109	105.744026184082	1468.828247070312	304.8067016601562	258.2978515625	1382.078002929688	393.8919982910156	4.294460296630859	1358.482666015625	333.6578063964844	132.4183044433594	1430.283935546875	200.2593688964844	260.0306091308594	1455.405639648438	198.9327392578125	317.5762939453125	1352.898071289062	105.6908111572266	385.3809509277344	1175.499755859375	81.98454284667969	301.5092468261719	1101.607177734375	82.35357666015625	452.0164794921875	1168.250854492188	278.0704345703125	495.2684326171875	1111.296020507812	257.3345336914062	435.2471313476562	1154.1416015625	151.2258453369141	513.6708984375	1132.635986328125	427.5720520019531	531.1821899414062	1098.360961914062	332.3237609863281	503.1114501953125	1162.905151367188	350.5849609375	72.88641357421875	1436.575073242188	472.0029296875	0.139031782746315	1399.392822265625	513.6737060546875	-147.5006408691406	1151.615966796875	492.7882385253906	-160.4379730224609	1164.412109375	427.8002014160156	-155.4292907714844	922.3634643554688	450.519287109375	-240.3634185791016	949.4226684570312	458.9578552246094	-179.0137634277344	1102.822265625	485.6333618164062	-231.6842803955078	792.0853881835938	403.6488647460938	-198.6573333740234	831.3165283203125	435.6885986328125	-267.4625244140625	866.5424194335938	436.7153625488281	119.1605072021484	1649.97216796875	422.1080932617188	311.1649475097656	1675.939697265625	350.5819702148438	247.68115234375	1676.204711914062	464.7994384765625	191.5710601806641	1653.396484375	258.3778686523438	226.1315765380859	892.2501220703125	119.2759857177734	48.57735061645508	882.3666381835938	477.7518920898438	158.7336273193359	922.2772827148438	455.3512878417969	285.55908203125	918.9549560546875	236.0827789306641	147.9301300048828	470.2782897949219	83.28426361083984	216.6758422851562	618.7950439453125	109.3605117797852	-137.5197448730469	188.0087738037109	-98.17697906494141	64.09988403320312	352.6271057128906	10.52498245239258	-86.18190002441406	31.97608184814453	45.87076568603516	-127.2716674804688	83.16118621826172	42.17460632324219	-73.7608642578125	67.30604553222656	-52.89934158325195	-178.5975799560547	242.0156097412109	-70.84433746337891	218.5445709228516	515.56396484375	534.1530151367188	123.3815155029297	770.0967407226562	525.9930419921875	265.678955078125	68.87638092041016	511.8148803710938	237.65576171875	365.6236267089844	548.6271362304688	455.6036987304688	94.65041351318359	610.7312622070312	432.7801513671875	88.56824493408203	543.2153930664062	352.7268371582031	65.62290191650391	608.0181884765625	244.1265869140625	76.18992614746094	432.8539428710938	
260	2.59	21.71342277526855	983.0989990234375	312.1043090820312	89.88507080078125	1002.155639648438	191.7840423583984	70.000732421875	1088.9228515625	260.3502197265625	306.7519836425781	1269.308837890625	425.2168884277344	71.27016448974609	1210.66357421875	253.7285919189453	122.6886978149414	1468.371337890625	318.3378295898438	276.1193542480469	1384.003051757812	407.2525939941406	22.35658836364746	1357.020141601562	347.5479431152344	149.7447814941406	1430.297973632812	213.9564056396484	276.7235717773438	1457.197265625	212.6347961425781	335.4295349121094	1356.589111328125	118.4359970092773	405.1493225097656	1179.229125976562	93.36032867431641	320.9261779785156	1105.258422851562	92.58573150634766	465.4893493652344	1175.442626953125	292.4808349609375	509.7734375	1118.48974609375	273.77099609375	452.8528137207031	1159.217895507812	164.9578857421875	521.712646484375	1142.1494140625	444.7239990234375	543.3634033203125	1106.8115234375	350.2772521972656	514.3170166015625	1171.515625	366.7994384765625	90.72576904296875	1436.080078125	485.1669006347656	18.38759803771973	1399.0791015625	527.17138671875	-127.8752746582031	1150.587524414062	505.2572937011719	-140.6218566894531	1163.611694335938	440.394287109375	-136.4436340332031	920.9533081054688	461.8763122558594	-221.3126525878906	948.088134765625	470.4244384765625	-159.4850006103516	1101.953369140625	498.0358581542969	-210.2904205322266	790.5699462890625	412.874755859375	-179.5169982910156	830.1446533203125	443.8344116210938	-248.3275756835938	865.5006103515625	445.291015625	134.8116760253906	1649.664184570312	435.9073486328125	326.74169921875	1676.835327148438	364.6907653808594	263.1694641113281	1676.341186523438	478.8190307617188	207.3147277832031	1654.07958984375	272.3135375976562	249.7160491943359	893.3359985351562	133.7346954345703	71.46323394775391	880.407958984375	490.7926025390625	182.0299530029297	922.002197265625	470.0056762695312	308.4385986328125	920.2518920898438	250.7078552246094	171.2299346923828	470.2149047851562	97.02752685546875	240.2350921630859	619.0813598632812	124.6482543945312	-122.0579986572266	202.9535217285156	-90.4190673828125	83.64334106445312	356.36572265625	21.83639907836914	-75.5338134765625	33.37905120849609	44.05953216552734	-114.7486572265625	90.00704193115234	43.87995147705078	-61.33000946044922	77.85569763183594	-51.47923278808594	-162.8104553222656	255.4657745361328	-60.78086853027344	237.1358489990234	510.2990112304688	543.36083984375	143.485595703125	765.2281494140625	537.411865234375	311.787353515625	65.69841003417969	541.6102294921875	264.7599182128906	363.1875610351562	564.7139282226562	500.5311279296875	97.98930358886719	641.4078369140625	477.9157104492188	91.14713287353516	573.6530151367188	398.4079895019531	65.54819488525391	637.9611206054688	290.3946228027344	71.74224090576172	462.4396362304688	
261	2.6	44.70172119140625	981.7302856445312	326.5271301269531	112.703239440918	1001.713439941406	206.1358795166016	90.68880462646484	1087.545166015625	274.6127319335938	326.2999267578125	1270.207885742188	438.422607421875	90.93144226074219	1208.614990234375	268.0238952636719	139.5822906494141	1466.602172851562	332.0340576171875	294.0988159179688	1384.495239257812	420.5545959472656	40.30813598632812	1354.0400390625	361.6394348144531	166.81396484375	1428.933959960938	227.7437438964844	293.3042907714844	1457.689453125	226.1546936035156	352.7369689941406	1358.79931640625	130.9052429199219	424.1583251953125	1181.184204101562	104.1615982055664	339.3561706542969	1107.598510742188	102.6779479980469	479.2249145507812	1180.028564453125	305.7355041503906	523.9830322265625	1122.85791015625	288.7417297363281	469.9522094726562	1162.001953125	177.7595367431641	530.7858276367188	1148.4814453125	460.0410766601562	555.6369018554688	1112.112060546875	366.4396362304688	526.1973876953125	1177.126098632812	381.4110107421875	108.6564483642578	1434.141845703125	498.6135864257812	36.77969741821289	1397.043701171875	540.9805297851562	-107.8474807739258	1147.720092773438	518.4635009765625	-120.5652160644531	1160.890258789062	453.7131958007812	-116.5777359008789	917.7783813476562	474.156005859375	-201.3839569091797	944.7830810546875	482.9613342285156	-139.4679260253906	1099.146484375	511.2881164550781	-186.906982421875	786.3817749023438	424.3729248046875	-159.3202972412109	827.1674194335938	453.1224365234375	-228.2149353027344	862.4642333984375	455.1246643066406	150.3558654785156	1648.16552734375	449.5368347167969	342.1949462890625	1676.664428710938	378.6277160644531	278.5101013183594	1675.45263671875	492.6663513183594	222.9514312744141	1653.49267578125	286.1201477050781	273.4878540039062	893.06689453125	148.3052673339844	94.1268310546875	876.7077026367188	503.71044921875	205.1473999023438	920.349853515625	484.7016296386719	331.202880859375	920.29833984375	265.3995056152344	195.8993072509766	468.6014404296875	111.5604019165039	264.818115234375	617.9486083984375	140.6741943359375	-106.6246566772461	218.1175231933594	-81.63813781738281	103.992561340332	359.2710571289062	33.73630142211914	-63.03435897827148	36.51671981811523	41.90356063842773	-100.6697540283203	97.35167694091797	45.88613510131836	-47.65143585205078	89.83814239501953	-49.93064498901367	-147.120361328125	268.8218994140625	-49.36117553710938	256.780517578125	504.774169921875	553.5032348632812	163.3344268798828	758.9039306640625	549.0076904296875	353.2527770996094	64.08298492431641	568.379150390625	291.158447265625	361.0065002441406	580.3723754882812	541.3367309570312	99.90872192382812	668.6107788085938	518.555419921875	93.362060546875	600.6082763671875	439.6449890136719	65.52938842773438	664.5699462890625	331.8636779785156	69.39169311523438	489.1426391601562	
262	2.61	67.31083679199219	978.425048828125	340.6467895507812	135.2025909423828	999.434814453125	220.1848297119141	111.1083145141602	1084.509155273438	288.8502807617188	345.8672180175781	1269.624755859375	451.4591674804688	110.2842407226562	1205.013061523438	282.3216247558594	156.4430999755859	1463.558471679688	345.9018249511719	312.230224609375	1383.549072265625	433.8096618652344	58.19933319091797	1349.6162109375	375.9290466308594	183.6490936279297	1426.232055664062	241.6389770507812	309.8040161132812	1456.880249023438	239.5111083984375	369.5065002441406	1359.493774414062	143.1257171630859	442.3078308105469	1181.422973632812	114.4528503417969	356.7710266113281	1108.616455078125	112.6156997680664	493.3032531738281	1181.913940429688	317.9375	538.0826416015625	1124.367065429688	302.2348022460938	486.5484619140625	1162.541259765625	189.6458129882812	541.0759887695312	1151.431274414062	473.6839599609375	568.255859375	1114.174926757812	380.8085632324219	538.885009765625	1179.600463867188	394.5607299804688	126.653190612793	1430.787353515625	512.3571166992188	55.29901885986328	1393.30078125	555.1264038085938	-87.42691040039062	1143.020385742188	532.4299926757812	-100.3109359741211	1156.273803710938	467.7829284667969	-95.80216217041016	912.8673706054688	487.2938537597656	-180.5338897705078	939.4950561523438	496.5888061523438	-118.9580383300781	1094.40087890625	525.3953247070312	-161.6331024169922	779.5223388671875	438.0938415527344	-138.0291137695312	822.389892578125	463.6359252929688	-207.0801849365234	857.3964233398438	466.3442687988281	165.8069458007812	1645.515258789062	462.9964904785156	357.5392456054688	1675.444946289062	392.3874816894531	293.7211608886719	1673.585693359375	506.3351440429688	238.4952697753906	1651.620239257812	299.7821960449219	297.4235534667969	891.4007568359375	162.9663543701172	116.5504684448242	871.4464111328125	516.5513916015625	228.0080413818359	917.3425903320312	499.4037475585938	353.8453369140625	919.093017578125	280.1534118652344	221.8760833740234	465.571044921875	126.7139053344727	290.3866271972656	615.4639282226562	157.2644958496094	-90.93081665039062	233.2731781005859	-71.80183410644531	125.2407455444336	361.4478759765625	46.11470413208008	-48.90828704833984	41.47259140014648	39.86915588378906	-85.16825103759766	105.1730728149414	48.44873809814453	-32.74674987792969	102.8620300292969	-47.88908386230469	-131.0542755126953	282.0906066894531	-36.66467666625977	277.6828002929688	499.2397766113281	564.79833984375	183.1429901123047	751.572509765625	561.0304565429688	389.642578125	63.00716781616211	591.4837646484375	316.879150390625	358.7346801757812	595.6002807617188	577.7055053710938	99.64359283447266	691.6661987304688	554.4133911132812	94.27388763427734	623.4525756835938	476.0858459472656	64.75450897216797	687.2918090820312	368.0361938476562	68.05831909179688	512.3314208984375	
